<svg id="Layer_1" data-name="Layer 1" xmlns="http://www.w3.org/2000/svg" viewBox="0 0 100 99.26"><g stroke="none" id="cart_filled" stroke-width="1" fill="none" fill-rule="evenodd"><path d="M130.73,125.21a12.41,12.41,0,0,0-12,9.3H96.17a12.38,12.38,0,0,0-11.54-9.26L83.25,119h56.19l10.64-49.63H72.21L68.08,50.76h-18V57h13l15.48,69.66a12.37,12.37,0,1,0,17.59,14.1h22.59a12.39,12.39,0,1,0,12-15.51ZM84.2,143.82a6.21,6.21,0,1,1,6.21-6.2A6.21,6.21,0,0,1,84.2,143.82Zm46.53,0a6.21,6.21,0,1,1,6.21-6.2A6.21,6.21,0,0,1,130.73,143.82Z" transform="translate(-50.08 -50.76)"/></g></svg>