<svg id="Layer_1" data-name="Layer 1" xmlns="http://www.w3.org/2000/svg" viewBox="0 0 100 100.05"><defs><style>.cls-1{fill:#fff;}</style></defs><title>cart_item_filled</title><path d="M146.6,85.31a24,24,0,0,0,2.28-10.24c0-.12,0-.23,0-.35l.93-4.35h-1.38a24.1,24.1,0,0,0-47.28,0H71.94L67.8,51.76h-18V58h13L78.3,127.62a12.37,12.37,0,1,0,17.59,14.1h22.6a12.41,12.41,0,1,0,0-6.21H95.89a12.37,12.37,0,0,0-11.53-9.26L83,120h56.2Zm-16.15,47.1a6.21,6.21,0,1,1-6.2,6.21A6.22,6.22,0,0,1,130.45,132.41Zm-46.53,0a6.21,6.21,0,1,1-6.2,6.21A6.22,6.22,0,0,1,83.92,132.41Z" transform="translate(-49.8 -50.97)"/><circle class="cls-1" cx="74.92" cy="24.54" r="17.94"/></svg>