<svg id="Layer_1" data-name="Layer 1" xmlns="http://www.w3.org/2000/svg" viewBox="0 0 100 100.05"><title>cart_item_unfilled</title><path d="M146.6,84.31a24,24,0,0,0,2.28-10.24c0-.12,0-.23,0-.35l.93-4.35h-1.38a24.1,24.1,0,0,0-47.28,0H71.94L67.8,50.76h-18V57h13L78.3,126.62a12.37,12.37,0,1,0,17.59,14.1h22.6a12.41,12.41,0,1,0,0-6.21H95.89a12.37,12.37,0,0,0-11.53-9.26L83,119h56.2Zm-16.15,47.1a6.21,6.21,0,1,1-6.2,6.21A6.22,6.22,0,0,1,130.45,131.41Zm-46.53,0a6.21,6.21,0,1,1-6.2,6.21A6.22,6.22,0,0,1,83.92,131.41ZM81.59,112.8,73.31,75.58h27.42a24.1,24.1,0,0,0,37.42,18.54l-4,18.68Z" transform="translate(-49.8 -49.97)"/></svg>