<svg id="Layer_1" data-name="Layer 1" xmlns="http://www.w3.org/2000/svg" viewBox="0 0 98.95 98.95"><title>contacts_filled</title><path d="M149.44,88.29V63.55H137.07V51.19H56.68V66.65H50.49v6.18h6.19V79H50.49V85.2h6.19v6.18H50.49v6.19h6.19v6.18H50.49v6.18h6.19v6.19H50.49v6.18h6.19v6.19H50.49v6.18h6.19v15.46h80.39V119.21h12.37V94.47H137.07V88.29ZM137.07,69.74h6.19V82.11h-6.19Zm-18.55,49.47H81.41v-9.28c0-6.77,5.27-12.53,12.57-14.61a9.28,9.28,0,1,1,12,0c7.3,2.08,12.57,7.84,12.57,14.61Zm24.74-18.55V113h-6.19V100.66Z" transform="translate(-50.49 -51.19)"/><path d="M100,91.38a3.09,3.09,0,1,0-3.1-3.09A3.09,3.09,0,0,0,100,91.38Z" transform="translate(-50.49 -51.19)"/><path d="M100,100.66c-6.82,0-12.37,4.16-12.37,9.27V113h24.74v-3.1C112.34,104.82,106.79,100.66,100,100.66Z" transform="translate(-50.49 -51.19)"/></svg>