<svg id="Layer_1" data-name="Layer 1" xmlns="http://www.w3.org/2000/svg" viewBox="0 0 98.95 98.95"><title>contacts_unfilled</title><path d="M149.44,87.29V62.55H137.07V50.19H56.68V65.65H50.49v6.18h6.19V78H50.49V84.2h6.19v6.18H50.49v6.19h6.19v6.18H50.49v6.18h6.19v6.19H50.49v6.18h6.19v6.19H50.49v6.18h6.19v15.46h80.39V118.21h12.37V93.47H137.07V87.29Zm-6.18-18.55V81.11h-6.19V68.74ZM130.89,143h-68v-9.28h6.19v-6.18H62.86V121.3h6.19v-6.18H62.86v-6.19h6.19v-6.18H62.86V96.57h6.19V90.38H62.86V84.2h6.19V78H62.86V71.83h6.19V65.65H62.86V56.37h68Zm12.37-43.29V112h-6.19V99.66Z" transform="translate(-50.49 -50.19)"/><path d="M118.52,108.93c0-6.77-5.27-12.53-12.57-14.61a9.28,9.28,0,1,0-12,0c-7.3,2.08-12.57,7.84-12.57,14.61v9.28h37.11ZM100,84.2a3.09,3.09,0,1,1-3.1,3.09A3.09,3.09,0,0,1,100,84.2ZM112.34,112H87.6v-3.1c0-5.11,5.55-9.27,12.37-9.27s12.37,4.16,12.37,9.27Z" transform="translate(-50.49 -50.19)"/></svg>