<?xml version="1.0" encoding="UTF-8"?>
<svg width="20px" height="20px" viewBox="0 0 20 20" version="1.1" xmlns="http://www.w3.org/2000/svg" xmlns:xlink="http://www.w3.org/1999/xlink">
    <!-- Generator: Sketch 62 (91390) - https://sketch.com -->
    <title>0: Icons / Arrow Up</title>
    <desc>Created with Sketch.</desc>
    <g id="Shopping-Cart" stroke="none" stroke-width="1" fill="none" fill-rule="evenodd">
        <g id="6.7-Out-of-Stock-1" transform="translate(-578.000000, -130.000000)" fill="#FFFFFF">
            <g id="Toast-Error" transform="translate(0.000000, 120.000000)">
                <g id="1:-Atoms-/-Toasts-/-Error">
                    <g id="0:-Icons-/-Alert-Filled" transform="translate(576.000000, 8.000000)">
                        <path d="M11.968,2 C6.46282564,2 2,6.46282564 2,11.968 C2,17.4731745 6.46282564,21.9360001 11.968,21.9360001 C17.4731745,21.9360001 21.9360001,17.4731745 21.9360001,11.968 C21.9293879,6.46556682 17.4704333,2.00661218 11.968,2 Z M12.1680001,17.600001 C11.3046961,17.6008092 10.5259486,17.0813901 10.1950157,16.2840333 C9.86408281,15.4866765 10.0461648,14.5684772 10.6563269,13.9577427 C11.266489,13.3470082 12.1845172,13.1640654 12.9821839,13.4942505 C13.7798506,13.8244356 14.3000001,14.6026957 14.3000001,15.4660001 C14.2988975,16.6430141 13.3450141,17.5968975 12.1680001,17.5980001 L12.1680001,17.600001 Z M13.7160001,12.2680001 L10.63,12.2680001 L9.98800004,5.86800002 L14.3660001,5.86800002 L13.7160001,12.2680001 Z" id="alert_filled"></path>
                    </g>
                </g>
            </g>
        </g>
    </g>
</svg>