<svg id="Layer_1" data-name="Layer 1" xmlns="http://www.w3.org/2000/svg" viewBox="0 0 99.68 99.68"><title>info_filled</title><path d="M100,50.88a49.84,49.84,0,1,0,49.84,49.84A49.89,49.89,0,0,0,100,50.88ZM95.58,80.65a6.39,6.39,0,0,1,6.76-1.38,7.59,7.59,0,0,1,2.06,1.38,9,9,0,0,1,1.38,2.06,6.66,6.66,0,0,1,0,4.76,9.16,9.16,0,0,1-1.38,2.06l-.93.75a5,5,0,0,1-1.13.56,3.78,3.78,0,0,1-1.12.37,6.23,6.23,0,0,1-5.64-1.68,6.5,6.5,0,0,1-1.87-4.44A6.26,6.26,0,0,1,95.58,80.65Zm10.64,35.7a6.25,6.25,0,0,1-12.5,0V103.84a6.25,6.25,0,0,1,12.5,0Z" transform="translate(-50.13 -50.88)"/></svg>