<?xml version="1.0" encoding="UTF-8"?>
<svg width="16px" height="21px" viewBox="0 0 16 21" version="1.1" xmlns="http://www.w3.org/2000/svg" xmlns:xlink="http://www.w3.org/1999/xlink">
    <!-- Generator: Sketch 59.1 (86144) - https://sketch.com -->
    <title>0: Icons / List Filled</title>
    <desc>Created with Sketch.</desc>
    <g id="Page-1" stroke="none" stroke-width="1" fill="none" fill-rule="evenodd">
        <g id="2.1-Shop-Home-List-View" transform="translate(-691.000000, -2041.000000)" fill="#FFFFFF">
            <g id="Group-4" transform="translate(640.000000, 2029.000000)">
                <g id="0:-Icons-/-List-Filled" transform="translate(47.000000, 10.500000)">
                    <path d="M15.02,3.23799996 L15.02,1.99999995 L8.83199998,1.99999995 L8.83199998,3.23799996 L4.50999996,3.23799996 L4.50999996,21.802 L19.362,21.802 L19.362,3.23799996 L15.02,3.23799996 Z M10.07,3.23799996 L13.782,3.23799996 L13.782,4.47599996 L10.07,4.47599996 L10.07,3.23799996 Z M16.87,16.852 L6.90999997,16.852 L6.90999997,15.614 L16.868,15.614 L16.87,16.852 Z M16.87,13.14 L6.90999997,13.14 L6.90999997,11.902 L16.868,11.902 L16.87,13.14 Z M16.87,9.42599999 L6.90999997,9.42599999 L6.90999997,8.18799998 L16.868,8.18799998 L16.87,9.42599999 Z" id="list_filled"></path>
                </g>
            </g>
        </g>
    </g>
</svg>