<svg id="Layer_1" data-name="Layer 1" xmlns="http://www.w3.org/2000/svg" viewBox="0 0 100.57 100.57"><title>profile_unfilled</title><path d="M100,99.37A25.14,25.14,0,1,0,74.86,74.23,25.16,25.16,0,0,0,100,99.37Zm0-44A18.86,18.86,0,1,1,81.14,74.23,18.87,18.87,0,0,1,100,55.38Z" transform="translate(-49.72 -49.09)"/><path d="M100,105.66c-28.2,0-50.28,12.42-50.28,28.28v15.72H150.29V133.94C150.29,118.08,128.2,105.66,100,105.66Zm44,37.71H56v-9.43c0-11.92,20.15-22,44-22s44,10.07,44,22Z" transform="translate(-49.72 -49.09)"/></svg>