<svg id="Layer_1" data-name="Layer 1" xmlns="http://www.w3.org/2000/svg" viewBox="0 0 98.75 98.75"><title>search_unfilled</title><path d="M62.84,87.26H69A18.53,18.53,0,0,1,87.52,68.74V62.57A24.71,24.71,0,0,0,62.84,87.26Z" transform="translate(-50.49 -50.22)"/><path d="M145.61,128.2l-25-24.52a36.68,36.68,0,0,0,3.9-16.42A37.18,37.18,0,1,0,104,120.39l25.71,25.28a11.27,11.27,0,0,0,16,0,12.32,12.32,0,0,0,0-17.47Zm-89-40.94a30.86,30.86,0,1,1,30.86,30.86A30.9,30.9,0,0,1,56.66,87.26Zm84.6,54.05a5.21,5.21,0,0,1-7.24,0l-24.63-24.21a37.23,37.23,0,0,0,8-8l23.9,23.48a6.17,6.17,0,0,1,0,8.73Z" transform="translate(-50.49 -50.22)"/></svg>